<?xml version="1.0" encoding="UTF-8"?>
<svg id="Layer_2" data-name="Layer 2" xmlns="http://www.w3.org/2000/svg" xmlns:xlink="http://www.w3.org/1999/xlink" viewBox="0 0 32.36 14.52">
  <defs>
    <style>
      .cls-1 {
        letter-spacing: .04em;
      }

      .cls-1, .cls-2, .cls-3, .cls-4 {
        fill: #f4f4f4;
        font-family: CormorantGaramond-Regular, 'Cormorant Garamond';
        font-size: 5.15px;
        isolation: isolate;
      }

      .cls-5 {
        clip-path: url(#clippath);
      }

      .cls-3 {
        letter-spacing: .04em;
      }

      .cls-6 {
        fill: none;
        stroke: #fff;
        stroke-miterlimit: 10;
        stroke-width: .1px;
      }

      .cls-4 {
        letter-spacing: .04em;
      }
    </style>
    <clipPath id="clippath">
      <path class="cls-6" d="M14.53,2.67l-2.4,2.45,.02-1.18c0-.28,.07-.39,.11-.45,0-.02,.02-.02,.02-.02l.17-.21c-.15-.22-.37-.45-.52-.6-.07-.07-.13-.11-.13-.11l-1.46,1.76-1.2,.04-2.72,2.43,3.8-1.01,.45,.81,4.66-1.48"/>
    </clipPath>
  </defs>
  <g id="Layer_2-2" data-name="Layer 2">
    <g>
      <text class="cls-4" transform="translate(0 12.99)"><tspan x="0" y="0">B</tspan></text>
      <text class="cls-4" transform="translate(3.07 12.99)"><tspan x="0" y="0">LUE RA</tspan></text>
      <text class="cls-3" transform="translate(21.54 12.99)"><tspan x="0" y="0">N</tspan></text>
      <text class="cls-1" transform="translate(25.63 12.99)"><tspan x="0" y="0">G</tspan></text>
      <text class="cls-2" transform="translate(29.58 12.99)"><tspan x="0" y="0">E</tspan></text>
      <path class="cls-6" d="M12.27,3.48l-.13,.47c.02-.28,.09-.41,.13-.47,0,.02,0,0,0,0Z"/>
      <path class="cls-6" d="M12.13,3.95c0-.28,.07-.39,.11-.45,0-.02,.02-.02,.02-.02"/>
      <path class="cls-6" d="M25.88,6.81l-4.76-2.12-.81,.6-1.12-.52h0l-2.25-2.3h0c-.06-.45-.24-.79-.37-.97t-.02-.04s-.02-.02-.02-.02c0-.02-.02-.02-.02-.04s-.02-.02-.02-.02c-.02,0-.02-.02-.02-.02,0-.02-.02-.02-.02-.02l-1.52,1.52-.39-.19-2.43,2.45,.02-1.18,.13-.47,.17-.21-.17-.28-.36-.32c-.07-.07-.13-.11-.13-.11l-1.46,1.76-1.2,.04-2.72,2.43,2.49-2.83,1.16,.17,1.61-2.1,1.65,1.31,1.42-2.06,.54,.21L17.08,.07l3.5,4.08,.77-.81,.39,.73,.34-.19,3.8,2.92Z"/>
      <g>
        <g>
          <g>
            <g class="cls-5">
              <rect class="cls-6" x="6.42" y="2.56" width="8.97" height="4.25"/>
            </g>
            <path class="cls-6" d="M14.53,2.67l-2.4,2.45,.02-1.18c0-.28,.07-.39,.11-.45,0-.02,.02-.02,.02-.02l.17-.21c-.15-.22-.37-.45-.52-.6-.07-.07-.13-.11-.13-.11l-1.46,1.76-1.2,.04-2.72,2.43,3.8-1.01,.45,.81,4.66-1.48"/>
          </g>
          <path id="SVGID" class="cls-6" d="M14.53,2.67l-2.4,2.45,.02-1.18c0-.28,.07-.39,.11-.45,0-.02,.02-.02,.02-.02l.17-.21c-.15-.22-.37-.45-.52-.6-.07-.07-.13-.11-.13-.11l-1.46,1.76-1.2,.04-2.72,2.43,3.8-1.01,.45,.81,4.66-1.48"/>
        </g>
        <path class="cls-6" d="M14.53,2.67l-2.4,2.45,.02-1.18c0-.28,.07-.39,.11-.45,0-.02,.02-.02,.02-.02l.17-.21c-.15-.22-.37-.45-.52-.6-.07-.07-.13-.11-.13-.11l-1.46,1.76-1.2,.04-2.72,2.43,3.8-1.01,.45,.81,4.66-1.48"/>
      </g>
      <line class="cls-6" x1=".84" y1="14.47" x2="32.36" y2="14.47"/>
      <line class="cls-6" x1=".84" y1="8.59" x2="32.36" y2="8.59"/>
      <path class="cls-6" d="M16.46,1.34l.02,.02,.02,.02,.02,.02s.02,.02,.02,.04l.02,.02s.02,.02,.02,.04c.13,.19,.32,.52,.37,.97h0l2.21,2.28h0l1.12,.52,.81-.6,4.78,2.12h0l-4.42-.79-2.96,.79h-.75l-.81-.54-1.69-1.14"/>
      <path class="cls-6" d="M16.52,1.42l-.02-.02s-.02-.04-.02-.04c0-.02-.02-.02-.02-.02h0l.02,.02,.02,.02,.02,.04Z"/>
      <path class="cls-6" d="M16.95,2.47h0c-.06-.45-.24-.79-.37-.97t-.02-.04s-.02-.02-.02-.02c0-.02-.02-.02-.02-.04l.02,.04,.02,.02,.02,.02v.02c.13,.19,.32,.54,.37,.97h0Z"/>
      <path class="cls-6" d="M19.17,4.77h0s0,0,0,0Z"/>
    </g>
  </g>
</svg>