<?xml version="1.0" encoding="UTF-8"?>
<svg id="Layer_2" data-name="Layer 2" xmlns="http://www.w3.org/2000/svg" viewBox="0 0 75.66 15.24">
  <defs>
    <style>
      .cls-1 {
        fill: #f4f4f4;
      }

      .cls-2 {
        fill: none;
        stroke: #f4f4f4;
        stroke-miterlimit: 10;
      }
    </style>
  </defs>
  <g id="Layer_2-2" data-name="Layer 2">
    <g id="Layer_1-2" data-name="Layer 1-2">
      <g>
        <g>
          <path class="cls-1" d="M14.12,11.68v3.02H1.79c-.84,0-1.51-.68-1.51-1.51s.68-1.51,1.51-1.51c0,0,12.33,0,12.33,0Z"/>
          <path class="cls-1" d="M3.02,4.96c0,.76,.64,1.39,1.39,1.39H14.12v3.02H4.42c-.48,0-.95-.08-1.39-.2-1.75-.6-3.02-2.23-3.02-4.22S1.27,1.38,3.02,.78c.44-.16,.91-.2,1.39-.2H14.12V3.6H4.42c-.76-.04-1.39,.6-1.39,1.35h0Z"/>
        </g>
        <path class="cls-1" d="M18.42,7.62c0,2.23,1.83,4.06,4.06,4.06h6.8v3.02h-6.76c-2.39,0-4.53-1.19-5.77-3.02-.8-1.15-1.31-2.55-1.31-4.06s.44-2.9,1.31-4.06c1.27-1.83,3.38-3.02,5.77-3.02h6.8V3.56h-6.8c-2.27,0-4.1,1.83-4.1,4.06h0Z"/>
        <path class="cls-1" d="M59.51,3.56c-1.31-1.83-3.38-3.02-5.77-3.02h-6.8V14.7h6.8c2.39,0,4.53-1.19,5.77-3.02,.8-1.15,1.31-2.55,1.31-4.06s-.52-2.9-1.31-4.06Zm-5.77,8.11h-3.78V3.56h3.78c2.23,0,4.06,1.83,4.06,4.06s-1.83,4.06-4.06,4.06Z"/>
        <path class="cls-1" d="M64.8,7.82c0,2.23,1.83,4.06,4.06,4.06h6.8v3.02h-6.8c-2.39,0-4.53-1.19-5.77-3.02-.8-1.15-1.31-2.55-1.31-4.06s.44-2.9,1.31-4.06c1.31-1.83,3.38-3.02,5.77-3.02h6.8V3.76h-6.8c-2.27,0-4.06,1.79-4.06,4.06h0Z"/>
        <g>
          <path class="cls-2" d="M45.43,4.96V14.7h-3.02V4.96h0c0-.12,0-.2-.04-.28-.16-.64-.72-1.11-1.35-1.11-.4,0-.72,.16-.99,.44-.24,.24-.44,.6-.44,.99h0V14.74h-3.02V4.96h0c0-.76-.64-1.39-1.39-1.39s-1.39,.64-1.39,1.39h0V14.7h-3.02V4.96c0-.48,.08-.95,.2-1.39,.6-1.75,2.23-3.02,4.18-3.02,1.11,0,2.15,.44,2.9,1.07l.04-.04c.08-.08,.16-.16,.24-.2,.16-.16,.4-.24,.6-.36,.04-.04,.12-.04,.16-.08s.12-.04,.16-.08c.4-.16,.72-.24,1.07-.32,.04,0,.12,0,.16-.04h1.19c.4,.04,.76,.16,1.11,.32,.04,.04,.12,.04,.16,.08,.04,.04,.12,.04,.16,.08s.12,.04,.16,.08,.12,.08,.16,.08c.12,.08,.16,.16,.28,.16h0c.08,.08,.16,.12,.2,.16s.08,.04,.08,.08c.6,.52,1.03,1.19,1.27,1.91,.12,.56,.2,1.03,.2,1.51Z"/>
          <path class="cls-1" d="M45.43,4.96V14.7h-3.02V4.96h0c0-.12,0-.2-.04-.28-.16-.64-.72-1.11-1.35-1.11-.4,0-.72,.16-.99,.44-.24,.24-.44,.6-.44,.99h0V14.74h-3.02V4.96c0-.48,.08-.95,.24-1.39,.24-.76,.72-1.43,1.31-1.95,.08-.08,.16-.16,.24-.2,.16-.16,.4-.24,.6-.36,.04-.04,.12-.04,.16-.08s.12-.04,.16-.08c.36-.16,.72-.24,1.03-.32,.04,0,.12,0,.16-.04h1.19c.4,.04,.76,.16,1.11,.32,.04,.04,.12,.04,.16,.08,.04,.04,.12,.04,.16,.08s.12,.04,.16,.08,.12,.08,.16,.08c.12,.08,.16,.16,.28,.16h0c.08,.08,.16,.12,.2,.16s.08,.04,.08,.08c.6,.52,1.03,1.19,1.27,1.91,.08,.52,.2,.99,.2,1.47h0Z"/>
        </g>
      </g>
    </g>
  </g>
</svg>