<?xml version="1.0" encoding="utf-8"?>
<!-- Generator: Adobe Illustrator 26.4.1, SVG Export Plug-In . SVG Version: 6.00 Build 0)  -->
<svg version="1.1" id="Layer_2_00000078759919668025366630000012160445928384717195_"
	 xmlns="http://www.w3.org/2000/svg" xmlns:xlink="http://www.w3.org/1999/xlink" x="0px" y="0px" viewBox="0 0 138.9 36"
	 style="enable-background:new 0 0 138.9 36;" xml:space="preserve">
<style type="text/css">
	.st0{fill:#F4F4F4;}
	.st1{fill:#F4F4F4;stroke:#FFFFFF;stroke-width:0.5;stroke-miterlimit:10;}
</style>
<g id="Layer_2-2">
	<g id="Layer_1-2">
		<g>
			<g>
				<path class="st0" d="M33,19c0,0.1,0,0.3-0.1,0.4s-0.1,0.3-0.2,0.4C29.9,25,24,26.1,24,26.1l1,3.1H0.1V0h16.3L17,2.2
					c0,0,1.7-0.4,3.6-0.4S27.2,2.1,30.8,6c0.3,0.4,0.7,0.8,0.7,1.4s-0.2,1-0.8,1.4l-0.3,0.1l0,0L22,13.4l0,0l-0.4,0.3
					c-0.1,0.1-0.3,0.1-0.4,0.1c-0.8,0-1.3-0.6-1.3-1.3c0-0.6,0.3-1,0.8-1.3l0,0l7.5-3.8c0,0-2.8-3-8-3c0,0-7.8-0.3-10.5,6.9
					c0,0-7.5,3.1-7.4,6.9c0,0,0,6.3,11.2,4c0,0,3,2.2,6.8,2.1c3.7-0.1,7.6-1.5,10.1-6l0,0c0.1-0.1,0.1-0.2,0.1-0.3
					c0.3-0.4,0.6-0.6,1.2-0.6C32.4,17.6,33,18.3,33,19L33,19z"/>
				<path class="st0" d="M11.6,20.7c0,0-6.7,1.8-7.2-2.8v-0.1c-0.2-2.6,4.9-5.1,4.9-5.1S8.1,17.2,11.6,20.7L11.6,20.7z"/>
				<path class="st0" d="M13.4,22.2l-1.6-1.5c0,0,24.2-6.3,24.7-16.6c0,0,0.2-3-3.3-3.1h0.2c3.8-0.2,4,3.1,4,3.1
					C38.4,14.6,13.4,22.2,13.4,22.2L13.4,22.2z"/>
			</g>
			<g>
				<path class="st0" d="M40.7,1.9h5.6v2.6h-2.8v2.2h2.4v2.5h-2.4v2.2h2.8V14h-5.6V1.9z"/>
				<path class="st0" d="M47.8,1.9h2.8v8.5c0,0.4,0.1,0.7,0.3,1s0.5,0.3,0.8,0.3s0.6-0.1,0.9-0.4c0.2-0.3,0.3-0.6,0.3-1V1.9h2.8v8
					c0,1.1-0.1,1.9-0.4,2.6c-0.3,0.6-0.7,1.2-1.3,1.4c-0.6,0.3-1.3,0.4-2.3,0.4c-1.5,0-2.5-0.4-3.1-1.1c-0.6-0.8-0.9-2-0.9-3.8
					L47.8,1.9L47.8,1.9z"/>
				<path class="st0" d="M57.8,1.9H61c1.3,0,2.3,0.3,3.1,1c0.8,0.6,1.1,1.5,1.1,2.7c0,0.6-0.1,1.2-0.4,1.7c-0.3,0.6-0.7,1-1.2,1.2
					l2.2,5.5h-2.9l-2.2-5.5h-0.2V14h-2.8L57.8,1.9L57.8,1.9z M60.6,4.3v2.9c1.2,0,1.8-0.4,1.8-1.3c0-0.6-0.1-1-0.4-1.2
					C61.7,4.4,61.2,4.3,60.6,4.3z"/>
				<path class="st0" d="M70.8,14.3c-1.5,0-2.6-0.6-3.3-1.7c-0.8-1.1-1.2-2.8-1.2-4.9c0-1.9,0.4-3.5,1.2-4.6s1.9-1.6,3.2-1.6
					c1.5,0,2.6,0.6,3.3,1.7c0.8,1.1,1.2,2.6,1.2,4.7s-0.4,3.6-1.2,4.8C73.2,13.8,72.1,14.3,70.8,14.3L70.8,14.3z M70.7,4.4
					c-1,0-1.5,1.2-1.5,3.5c0,1.5,0.1,2.5,0.4,3s0.6,0.8,1.1,0.8s0.9-0.3,1.2-0.8s0.4-1.5,0.4-3C72.2,5.5,71.8,4.4,70.7,4.4L70.7,4.4
					z"/>
				<path class="st0" d="M87.2,11.2v2.9c-0.6,0.2-1.1,0.3-1.5,0.3c-1.6,0-2.9-0.6-3.9-1.8s-1.5-2.8-1.5-4.7c0-1.8,0.5-3.3,1.5-4.5
					s2.2-1.7,3.8-1.7c0.6,0,1.2,0.1,1.6,0.3v2.9c-0.5-0.2-1-0.3-1.5-0.3c-0.7,0-1.3,0.3-1.8,1c-0.4,0.6-0.7,1.5-0.7,2.5
					c0,1.1,0.3,1.9,0.7,2.6c0.4,0.6,1.1,1,1.9,1C86.2,11.4,86.8,11.4,87.2,11.2L87.2,11.2z"/>
				<path class="st0" d="M92.4,14.3c-1.5,0-2.6-0.6-3.3-1.7c-0.8-1.1-1.2-2.8-1.2-4.9c0-1.9,0.4-3.5,1.2-4.6s1.9-1.6,3.2-1.6
					c1.5,0,2.6,0.6,3.3,1.7c0.8,1.1,1.2,2.6,1.2,4.7s-0.4,3.6-1.2,4.8C94.9,13.8,93.9,14.3,92.4,14.3L92.4,14.3z M92.4,4.4
					c-1,0-1.5,1.2-1.5,3.5c0,1.5,0.1,2.5,0.4,3s0.6,0.8,1.1,0.8s0.9-0.3,1.2-0.8s0.4-1.5,0.4-3C93.9,5.5,93.4,4.4,92.4,4.4L92.4,4.4
					z"/>
				<path class="st0" d="M98.4,1.9h2.8l3.5,7l-0.1-1.3V1.9h2.8V14h-2.9l-3.3-6.9l0.1,1.5V14h-2.8L98.4,1.9L98.4,1.9z"/>
				<path class="st0" d="M109.6,13.8V11c0.9,0.5,1.6,0.8,2.2,0.8c0.3,0,0.6-0.1,0.8-0.3c0.2-0.2,0.3-0.4,0.3-0.8
					c0-0.3-0.1-0.4-0.3-0.7c-0.1-0.2-0.4-0.4-0.8-0.8c-1-0.7-1.6-1.4-2.1-2.1c-0.4-0.6-0.6-1.3-0.6-2.1c0-1,0.3-1.9,1-2.6
					c0.6-0.6,1.5-1,2.6-1c0.8,0,1.5,0.2,2.3,0.5v2.7c-0.8-0.4-1.5-0.6-2-0.6c-0.3,0-0.6,0.1-0.8,0.3c-0.2,0.2-0.3,0.4-0.3,0.7
					c0,0.5,0.4,1.1,1.3,1.7c0.5,0.4,1.1,0.9,1.7,1.6s0.8,1.5,0.8,2.4c0,1-0.4,1.9-1.1,2.6c-0.7,0.7-1.7,1-2.8,1
					C111.1,14.4,110.2,14.2,109.6,13.8L109.6,13.8z"/>
				<path class="st0" d="M117.2,1.9h2.8v8.5c0,0.4,0.1,0.7,0.3,1c0.2,0.3,0.5,0.3,0.8,0.3s0.6-0.1,0.9-0.4c0.2-0.3,0.3-0.6,0.3-1
					V1.9h2.8v8c0,1.1-0.1,1.9-0.4,2.6c-0.3,0.6-0.7,1.2-1.3,1.4c-0.6,0.3-1.3,0.4-2.3,0.4c-1.5,0-2.5-0.4-3.1-1.1
					c-0.6-0.8-0.9-2-0.9-3.8L117.2,1.9L117.2,1.9z"/>
				<path class="st0" d="M127.2,1.9h2.8v9.3h2.2V14h-4.9L127.2,1.9C127.2,1.9,127.1,1.9,127.2,1.9z"/>
				<path class="st0" d="M132.2,1.9h6.6v2.8H137V14h-2.8V4.7h-1.9L132.2,1.9L132.2,1.9L132.2,1.9z"/>
			</g>
			<g>
				<path class="st0" d="M92.9,16h2.4c0.8,0,1.5,0.3,2.1,0.7c0.5,0.5,0.8,1.1,0.8,1.9s-0.3,1.5-0.8,2c-0.5,0.4-1.2,0.7-2.2,0.7h-0.3
					v3.3H93L92.9,16L92.9,16z M94.8,17.7v2.1c0.4,0,0.8-0.1,1-0.3c0.2-0.1,0.3-0.4,0.3-0.8s-0.1-0.6-0.3-0.8S95.3,17.7,94.8,17.7
					L94.8,17.7z"/>
				<path class="st0" d="M104.8,24.6h-2.1l-0.3-1.4h-2l-0.3,1.4h-2l2.2-8.5h2.2C102.4,16.1,104.7,24.6,104.8,24.6z M102.1,21.7
					c-0.3-1.3-0.5-2.5-0.6-3.7l0,0c-0.1,1.2-0.4,2.4-0.6,3.7H102.1z"/>
				<path class="st0" d="M105.3,16h1.9v4l0,0l1.9-4h2.1l-2,4.4l1.9,4.2H109l-1.7-3.5l0,0v3.5h-1.9C105.4,24.6,105.4,16,105.3,16z"/>
				<path class="st0" d="M111.9,16h1.9v8.5h-1.9V16z"/>
				<path class="st0" d="M115.4,24.4v-2c0.6,0.4,1.2,0.5,1.5,0.5s0.4-0.1,0.6-0.2c0.1-0.1,0.2-0.3,0.2-0.5s-0.1-0.3-0.2-0.5
					c-0.1-0.1-0.3-0.3-0.6-0.5c-0.6-0.5-1.2-1-1.5-1.4s-0.4-1-0.4-1.5c0-0.8,0.3-1.3,0.7-1.8c0.4-0.4,1.1-0.7,1.8-0.7
					c0.6,0,1.1,0.1,1.6,0.3V18c-0.6-0.3-1-0.4-1.4-0.4c-0.3,0-0.4,0.1-0.6,0.2c-0.1,0.1-0.2,0.3-0.2,0.5c0,0.4,0.3,0.8,1,1.2
					c0.4,0.3,0.8,0.6,1.2,1.1c0.4,0.5,0.6,1,0.6,1.7c0,0.8-0.3,1.3-0.8,1.9c-0.5,0.5-1.2,0.7-2,0.7C116.5,24.8,116,24.7,115.4,24.4
					L115.4,24.4z"/>
				<path class="st0" d="M120.2,16h4.6v1.9h-1.3v6.6h-2v-6.6h-1.3L120.2,16L120.2,16z"/>
				<path class="st0" d="M131.6,24.6h-2l-0.3-1.4h-2.1l-0.3,1.4h-2l2.2-8.5h2.2L131.6,24.6z M128.9,21.7c-0.3-1.3-0.5-2.5-0.6-3.7
					l0,0c-0.1,1.2-0.4,2.4-0.6,3.7H128.9z"/>
				<path class="st0" d="M132.2,16h2l2.4,4.9l-0.1-0.9v-4h1.9v8.5h-2l-2.4-4.9l0.1,1.1v3.8h-1.9V16L132.2,16z"/>
			</g>
			<g>
				<path class="st0" d="M35.2,28.2h4.1v1.7h-1.2v5.8h-1.6v-5.8h-1.2C35.2,30,35.2,28.2,35.2,28.2z"/>
				<path class="st0" d="M40.3,28.2H42V31h1.5v-2.8h1.7v7.6h-1.7v-3.1H42v3.1h-1.7V28.2z"/>
				<path class="st0" d="M47,28.2h3.5v1.6h-1.7v1.4h1.5v1.5h-1.5v1.5h1.8v1.6H47V28.2L47,28.2z"/>
				<path class="st0" d="M55,28.2h2.2c0.3,1.6,0.6,3,0.7,4.2l0.2-1.2c0.1-0.4,0.1-0.9,0.3-1.3l0.3-1.7H61l0.8,7.6H60l-0.4-5.2
					l-1,5.2h-1.1l-1.1-5.2L56,35.8h-1.6L55,28.2L55,28.2z"/>
				<path class="st0" d="M63.2,28.2h1.7v7.6h-1.7C63.1,35.8,63.1,28.2,63.2,28.2z"/>
				<path class="st0" d="M66.6,28.2h1.7V34h1.3v1.7h-3V28.2L66.6,28.2z"/>
				<path class="st0" d="M70.7,28.2h1.7V34h1.3v1.7h-3V28.2L70.7,28.2z"/>
				<path class="st0" d="M74.9,28.2h3.5v1.6h-1.7v1.4h1.5v1.5h-1.5v1.5h1.8v1.6H75L74.9,28.2C75,28.2,75,28.2,74.9,28.2z"/>
				<path class="st0" d="M79.7,28.2h1.7l2.2,4.4l-0.1-0.8v-3.6h1.7v7.6h-1.6l-2.1-4.3l0.1,1v3.3h-1.7L79.7,28.2L79.7,28.2z"/>
				<path class="st0" d="M86.9,28.2h1.7v7.6h-1.7V28.2z"/>
				<path class="st0" d="M90.2,28.2h1.7v5.3c0,0.3,0.1,0.4,0.2,0.6c0.1,0.1,0.3,0.2,0.5,0.2s0.4-0.1,0.6-0.3
					c0.1-0.1,0.2-0.4,0.2-0.6v-5.2h1.7v4.9c0,0.7-0.1,1.2-0.3,1.6s-0.4,0.7-0.8,0.9c-0.3,0.2-0.8,0.3-1.5,0.3
					c-0.9,0-1.5-0.3-1.9-0.7S90,33.9,90,32.8L90.2,28.2L90.2,28.2L90.2,28.2z"/>
				<path class="st0" d="M97.3,28.2h2.2c0.3,1.6,0.6,3,0.7,4.2l0.2-1.2c0.1-0.4,0.1-0.9,0.3-1.3l0.3-1.7h2.2l0.8,7.6h-1.7l-0.4-5.2
					l-1,5.2h-1.2l-1.1-5.2l-0.4,5.2h-1.7L97.3,28.2C97.4,28.2,97.4,28.2,97.3,28.2z"/>
				<path class="st0" d="M107.4,28.2h1.8l1,3.3c0.2,0.6,0.3,1.2,0.4,1.7l0,0c0.1-0.4,0.1-0.8,0.2-1l1-4h1.9l-2.2,7.6H110L107.4,28.2
					C107.5,28.2,107.5,28.2,107.4,28.2z"/>
				<path class="st0" d="M114.6,28.2h1.7v7.6h-1.7V28.2z"/>
				<path class="st0" d="M117.9,35.7V34c0.5,0.3,1,0.4,1.3,0.4c0.2,0,0.4-0.1,0.5-0.2s0.2-0.3,0.2-0.4s-0.1-0.3-0.1-0.4
					c-0.1-0.1-0.3-0.3-0.5-0.5c-0.6-0.4-1-0.9-1.3-1.3s-0.4-0.8-0.4-1.3c0-0.6,0.2-1.2,0.6-1.6s1-0.6,1.6-0.6c0.5,0,1,0.1,1.4,0.3
					v1.7c-0.5-0.3-0.9-0.4-1.2-0.4c-0.2,0-0.4,0.1-0.5,0.1c-0.1,0.1-0.2,0.3-0.2,0.4c0,0.3,0.3,0.7,0.8,1.1c0.3,0.3,0.7,0.6,1,1
					c0.3,0.4,0.5,0.9,0.5,1.5s-0.3,1.2-0.7,1.6c-0.4,0.4-1,0.6-1.7,0.6C118.9,36,118.4,35.9,117.9,35.7
					C118,35.7,118,35.7,117.9,35.7z"/>
				<path class="st0" d="M123.1,28.2h1.7v7.6h-1.7V28.2z"/>
				<path class="st0" d="M128.9,36c-0.9,0-1.6-0.3-2.1-1c-0.4-0.7-0.7-1.7-0.7-3c0-1.2,0.3-2.2,0.7-2.8c0.5-0.7,1.2-1,2-1
					c0.9,0,1.6,0.3,2.1,1s0.7,1.7,0.7,3s-0.3,2.2-0.7,3C130.5,35.6,129.8,36,128.9,36L128.9,36z M128.9,29.8c-0.6,0-0.9,0.7-0.9,2.2
					c0,1,0.1,1.5,0.3,1.9c0.1,0.3,0.4,0.4,0.7,0.4s0.6-0.1,0.8-0.4c0.2-0.3,0.3-0.9,0.3-1.9C129.8,30.5,129.4,29.8,128.9,29.8
					L128.9,29.8z"/>
				<path class="st0" d="M132.9,28.2h1.7l2.2,4.4l-0.1-0.8v-3.6h1.7v7.6h-1.7l-2.1-4.3l0.1,1v3.3H133L132.9,28.2L132.9,28.2
					L132.9,28.2z"/>
			</g>
			<g>
				<path class="st1" d="M2.7,30.7v0.5H0.8v1.4h1.9v0.6H0.8v1.9h1.9v0.5H0.2v-4.8L2.7,30.7L2.7,30.7z"/>
				<path class="st1" d="M9.6,35.4c-0.4,0.2-0.9,0.3-1.3,0.3c-0.6,0-1.3-0.3-1.8-0.7s-0.7-1.2-0.7-1.7c0-1,0.4-1.8,1.2-2.3
					c0.4-0.3,0.8-0.4,1.3-0.4s0.8,0.1,1.2,0.3c0.1,0,0.1,0,0.1,0.1v0.6c-0.5-0.3-0.8-0.4-1.3-0.4c-1.1,0-1.9,0.8-1.9,1.9
					c0,1.2,0.8,2,1.9,2c0.4,0,0.8-0.1,1.3-0.4V35.4L9.6,35.4z"/>
				<path class="st1" d="M14.1,30.7c1,0,1.5,0.4,1.5,1.3c0,0.8-0.6,1.3-1.5,1.3h-0.6v2.1H13v-4.8L14.1,30.7L14.1,30.7z M14.2,32.9
					c0.6,0,0.9-0.3,0.9-0.8s-0.3-0.8-0.9-0.8h-0.6V33L14.2,32.9L14.2,32.9z"/>
				<path class="st1" d="M22.4,35.5h-0.6l-0.6-1.4h-1.9l-0.6,1.4H18l2.2-4.9L22.4,35.5z M19.5,33.6H21l-0.8-1.7L19.5,33.6L19.5,33.6
					z"/>
				<path class="st1" d="M26,30.7v2.1l1.9-2.1h0.7L26.5,33l2.2,2.5H28l-2.1-2.4v2.4h-0.4v-4.8H26z"/>
			</g>
		</g>
	</g>
</g>
</svg>
