<?xml version="1.0" encoding="UTF-8"?>
<svg id="Layer_2" data-name="Layer 2" xmlns="http://www.w3.org/2000/svg" viewBox="0 0 14.4 14.4">
  <defs>
    <style>
      .cls-1 {
        fill: #f4f4f4;
      }
    </style>
  </defs>
  <g id="Layer_2-2" data-name="Layer 2">
    <g id="Layer_2-2" data-name="Layer 2-2">
      <g id="Layer_1-2" data-name="Layer 1-2">
        <path class="cls-1" d="M14.36,2.48c-.04-.2-.04-.44-.08-.64-.32-.84-.88-1.4-1.72-1.72-.32-.12-.64-.12-1-.12H2.76c-.32,0-.64,0-.92,.08C.92,.4-.04,1.32,0,2.68,.04,5.68,0,8.68,0,11.64c0,.36,.04,.72,.2,1.08,.12,.24,.24,.48,.4,.68,.52,.6,1.2,1,2.04,1H11.8c.2,0,.4,0,.6-.08,.84-.24,1.44-.8,1.84-1.6,.12-.28,.12-.56,.16-.8v-.16s0-.12,0-.16V2.6l-.04-.12h0ZM5.96,10.2c-1.84,.08-3.48-1.24-3.68-3.04-.16-1.32,.6-2.68,1.8-3.32,.56-.28,1.12-.44,1.72-.44h2.96c.4,0,.64,.24,.64,.6s-.24,.6-.64,.6h-2.96c-1,0-1.92,.68-2.16,1.64-.32,1.16,.4,2.36,1.6,2.68,.24,.08,.48,.08,.68,.08,.32,0,.56,.24,.56,.56,.04,.36-.2,.64-.52,.64h0Zm2.84,0c-.36,0-.68-.28-.68-.64,0-.32,0-.6-.12-.88-.24-.76-.76-1.12-1.52-1.28-.24-.04-.48-.04-.68-.04-.24,.04-.48-.12-.56-.36s-.04-.48,.16-.64c.12-.12,.28-.2,.44-.2,.72-.04,1.4,.04,2.04,.36,.88,.44,1.36,1.16,1.52,2.12,0,.08,.04,.12,.04,.2,0,.12,.04,.24,.04,.36h0v.28c-.04,.44-.32,.72-.68,.72h0Zm2.6-.6c0,.36-.28,.64-.64,.64s-.6-.28-.6-.64V4.08c0-.36,.24-.64,.6-.64s.6,.24,.6,.6c.04,1.84,.04,3.68,.04,5.56h0Z"/>
      </g>
    </g>
  </g>
</svg>