<?xml version="1.0" encoding="UTF-8"?>
<svg id="Layer_2" data-name="Layer 2" xmlns="http://www.w3.org/2000/svg" viewBox="0 0 82.3 14.65">
  <defs>
    <style>
      .cls-1 {
        fill: #f4f4f4;
        stroke: #f4f4f4;
        stroke-miterlimit: 10;
        stroke-width: .25px;
      }
    </style>
  </defs>
  <g id="Layer_2-2" data-name="Layer 2">
    <g id="Layer_2-2" data-name="Layer 2-2">
      <g id="Layer_1-2" data-name="Layer 1-2">
        <g>
          <path class="cls-1" d="M16.28,12.81c-.76,.6-1.52,1.08-2.27,1.32-.76,.28-1.48,.4-2.23,.4s-1.6-.12-2.35-.32c-.8-.2-1.6-.4-2.39-.68s-1.64-.48-2.47-.72c-.84-.24-1.72-.36-2.63-.4H.12v-.12c.4,0,.68-.04,.84-.12,.16-.08,.28-.32,.28-.64V3.08c0-.2,0-.36-.08-.4-.04-.12-.12-.2-.2-.24s-.2-.08-.36-.08H.12v-.12H3v.12h-.48c-.16,0-.28,.04-.36,.08s-.16,.12-.2,.24c-.04,.12-.08,.24-.08,.4V11.53c0,.32,.08,.52,.2,.6,.12,.12,.32,.16,.6,.2h.28c.8,.08,1.56,.2,2.31,.36s1.52,.36,2.27,.48c.76,.2,1.52,.36,2.23,.44,.72,.16,1.48,.2,2.19,.2s1.4-.08,2.11-.28c.68-.2,1.4-.48,2.07-.92l.12,.2h0Z"/>
          <path class="cls-1" d="M15.92,10.02l-.72,2.43H7.23v-.12c.4,0,.68-.04,.88-.12,.2-.08,.28-.32,.28-.64V3.04c0-.2-.04-.36-.08-.4-.04-.12-.12-.2-.2-.24s-.2-.08-.36-.08h-.48v-.12h7.42l.72,2.43-.12,.04c-.2-.56-.32-1-.44-1.28-.12-.32-.28-.52-.4-.68-.16-.16-.36-.24-.56-.28-.24-.04-.52-.04-.88-.04h-3.95V6.95h2.39c.4,0,.64-.04,.76-.16,.16-.12,.24-.32,.32-.56h.08v1.64h-.08c-.08-.28-.16-.44-.32-.56s-.4-.16-.76-.16h-2.39v4.39c0,.36,.08,.52,.2,.6s.36,.12,.64,.12h3.63c.4,0,.72,0,.96-.04,.24-.04,.4-.12,.52-.28,.12-.16,.28-.4,.4-.68,.12-.32,.28-.72,.4-1.24h.12Z"/>
          <path class="cls-1" d="M30.28,10.5c0,.64-.12,1.2-.4,1.72-.28,.48-.6,.92-1.04,1.2-.4,.36-.92,.56-1.48,.72-.52,.16-1.12,.24-1.68,.24s-1.12-.08-1.64-.24-1.04-.4-1.44-.68c-.4-.32-.76-.64-1.04-1.12-.28-.44-.4-.96-.4-1.52,0-.36,.08-.72,.16-1.08,.12-.36,.28-.68,.48-.96,.24-.32,.44-.52,.76-.76,.32-.24,.64-.36,1.08-.44l.04,.08c-.56,.2-1,.52-1.28,1.08-.32,.48-.44,1.08-.44,1.72s.12,1.16,.36,1.64c.24,.44,.48,.84,.88,1.16,.36,.32,.76,.52,1.2,.68s.92,.24,1.4,.24,.92-.08,1.36-.24c.44-.16,.84-.4,1.2-.68,.36-.32,.64-.68,.84-1.16,.24-.44,.32-1,.32-1.6,0-.64-.16-1.2-.48-1.72-.36-.44-.72-.88-1.2-1.24-.48-.4-1.04-.72-1.6-1.04s-1.12-.64-1.6-1-.88-.72-1.2-1.16-.48-.96-.48-1.56c0-.44,.08-.84,.24-1.2,.16-.36,.4-.6,.64-.84,.28-.24,.56-.4,.96-.48,.36-.12,.72-.16,1.08-.16,.64,0,1.2,.12,1.8,.4,.24,.08,.4,.2,.56,.28,.16,.08,.32,.12,.4,.12,.2,0,.28-.16,.36-.44h.08V2.6h-.08c-.12-.4-.28-.72-.44-1-.2-.28-.44-.52-.76-.72-.28-.2-.56-.36-.92-.4-.32-.08-.64-.16-.96-.16s-.64,.04-.96,.16c-.32,.08-.56,.24-.8,.4-.24,.2-.4,.4-.52,.64-.16,.28-.2,.56-.2,.92,0,.6,.2,1.12,.52,1.52s.76,.8,1.28,1.16,1.08,.68,1.68,1,1.16,.68,1.68,1.08,.96,.84,1.28,1.32c.24,.68,.4,1.28,.4,1.99h0Z"/>
          <path class="cls-1" d="M40.09,9.98l-.68,2.43h-7.98v-.12c.4,0,.68-.04,.84-.12,.16-.08,.28-.32,.28-.64V3.04c0-.2,0-.36-.08-.4-.04-.12-.12-.2-.2-.24s-.2-.08-.36-.08h-.48v-.12h7.42l.72,2.43-.12,.04c-.2-.56-.36-1-.44-1.28-.12-.32-.28-.52-.4-.68-.16-.16-.36-.24-.56-.28-.24-.04-.52-.04-.88-.04h-3.91V11.53c0,.36,.08,.52,.2,.6s.36,.12,.64,.12h3.63c.4,0,.72,0,.96-.08,.24-.04,.4-.12,.52-.28,.16-.16,.28-.4,.4-.68,.12-.32,.28-.72,.4-1.24h.08Zm2.87,1.56c0,.4,.08,.56,.28,.64s.44,.12,.88,.12v.12h-2.87v-.12c.4,0,.68-.04,.88-.12,.2-.08,.28-.32,.28-.64v-3.91h-5.15c-.4,0-.64,.04-.8,.16s-.24,.32-.32,.56h-.08v-1.64h.08c.04,.28,.16,.44,.28,.56s.4,.16,.68,.16h5.27V3.04c0-.2-.04-.36-.08-.4-.04-.12-.12-.2-.2-.24s-.2-.08-.36-.08h-.48v-.12h3.91c1.28,0,2.27,.24,2.91,.72,.64,.48,1,1.16,1,1.99,0,.72-.28,1.32-.76,1.83-.48,.44-1.28,.76-2.31,.88,.48,.12,.92,.32,1.24,.6,.36,.28,.68,.6,.96,.96s.48,.72,.68,1.12,.4,.72,.52,1.04c.2,.32,.36,.56,.48,.76,.16,.2,.36,.32,.56,.32v.12h-1.4c-.2-.4-.4-.84-.6-1.36-.24-.52-.48-1.08-.84-1.6-.36-.48-.68-.96-1.12-1.28-.4-.4-.92-.52-1.44-.52h-2.07v3.75h0Zm0-4.07h2.11c.52,0,1.04-.08,1.4-.2,.4-.16,.72-.32,1-.52,.28-.24,.44-.48,.56-.84,.12-.32,.2-.64,.2-1.04,0-.76-.28-1.32-.8-1.8s-1.32-.68-2.35-.68h-2.11V7.46h0Z"/>
          <path class="cls-1" d="M60.6,10.02l-.72,2.43h-7.98v-.12c.4,0,.68-.04,.88-.12,.2-.08,.28-.32,.28-.64V3.04c0-.2-.04-.36-.08-.4-.04-.12-.12-.2-.2-.24s-.2-.08-.36-.08h-.48v-.12h7.42l.72,2.43-.12,.04c-.2-.56-.32-1-.44-1.28-.12-.32-.28-.52-.4-.68-.16-.16-.36-.24-.56-.28-.24-.04-.52-.04-.88-.04h-3.95V6.95h2.39c.4,0,.64-.04,.76-.16,.16-.12,.24-.32,.32-.56h.08v1.64h-.08c-.08-.28-.16-.44-.32-.56-.16-.12-.4-.16-.76-.16h-2.39v4.39c0,.36,.08,.52,.2,.6s.36,.12,.64,.12h3.63c.4,0,.72,0,.96-.04,.24-.04,.4-.12,.52-.28,.12-.16,.28-.4,.4-.68,.12-.32,.28-.72,.4-1.24h.12Z"/>
          <path class="cls-1" d="M70.93,11.69v.92h-.2l-7.34-9.61V11.57c0,.2,.04,.36,.12,.4,.08,.12,.16,.2,.28,.24s.24,.08,.36,.08h.4v.12h-2.43v-.08h.4c.16,0,.28-.04,.36-.08,.12-.04,.2-.12,.28-.24,.08-.12,.12-.24,.12-.4V3.04c0-.2-.04-.36-.12-.4-.08-.12-.16-.2-.28-.24s-.24-.08-.36-.08h-.4v-.12h1.64l6.98,9.17V3.04c0-.2-.04-.36-.12-.4-.08-.12-.16-.2-.28-.24s-.24-.08-.36-.08h-.4v-.12h2.43v.12h-.4c-.16,0-.28,.04-.36,.08-.12,.04-.2,.12-.28,.24-.08,.12-.12,.24-.12,.4V11.69h.08Z"/>
          <path class="cls-1" d="M82.14,10.02l-.72,2.43h-7.98v-.12c.4,0,.68-.04,.88-.12,.2-.08,.28-.32,.28-.64V3.04c0-.2-.04-.36-.08-.4-.04-.12-.12-.2-.2-.24s-.2-.08-.36-.08h-.48v-.12h7.42l.72,2.43-.12,.04c-.2-.56-.32-1-.44-1.28-.12-.32-.28-.52-.4-.68-.16-.16-.36-.24-.56-.28-.24-.04-.52-.04-.88-.04h-3.95V6.95h2.39c.4,0,.64-.04,.76-.16,.16-.12,.24-.32,.32-.56h.08v1.64h-.08c-.08-.28-.16-.44-.32-.56s-.4-.16-.76-.16h-2.39v4.39c0,.36,.08,.52,.2,.6s.36,.12,.64,.12h3.63c.4,0,.72,0,.96-.04,.24-.04,.4-.12,.52-.28,.12-.16,.28-.4,.4-.68,.12-.32,.28-.72,.4-1.24h.12Z"/>
        </g>
      </g>
    </g>
  </g>
</svg>