<?xml version="1.0" encoding="UTF-8"?>
<svg id="Layer_2" data-name="Layer 2" xmlns="http://www.w3.org/2000/svg" viewBox="0 0 86.44 14.4">
  <defs>
    <style>
      .cls-1 {
        fill: #f4f4f4;
      }
    </style>
  </defs>
  <g id="Layer_2-2" data-name="Layer 2">
    <g id="Layer_1-2" data-name="Layer 1-2">
      <g>
        <g>
          <g>
            <polygon class="cls-1" points="0 14.4 14.44 0 17.44 2.96 5.96 14.4 0 14.4"/>
            <polygon class="cls-1" points="9.68 14.4 24.24 0 27.24 3.04 22.44 7.72 28.84 14.4 22.96 14.36 19.36 10.72 15.76 14.36 9.68 14.4"/>
          </g>
          <polygon class="cls-1" points="38.68 14.4 29.08 4.72 26 7.76 32.56 14.4 38.68 14.4"/>
        </g>
        <g>
          <g>
            <path class="cls-1" d="M48.6,9.52h-1l-1.6-7.52v7.52h-.92V.08h1.48l1.56,7.52L49.6,.08h1.48V9.52h-1V1.92l-1.48,7.6Z"/>
            <path class="cls-1" d="M53.44,.08V9.52h-1.04V.08h1.04Z"/>
            <path class="cls-1" d="M58.92,2.36v.84h-1v-.88c0-.84-.32-1.36-1.12-1.36s-1.12,.52-1.12,1.36V7.32c0,.84,.36,1.36,1.12,1.36s1.12-.52,1.12-1.36v-1.24h1v1.16c0,1.44-.68,2.36-2.12,2.36s-2.12-.96-2.12-2.36V2.36c0-1.44,.68-2.36,2.12-2.36s2.12,.96,2.12,2.36Z"/>
            <path class="cls-1" d="M62.24,.08c1.48,0,2.08,.76,2.08,2.16v.76c0,1.04-.36,1.68-1.16,1.92,.88,.24,1.2,.96,1.2,1.96v1.52c0,.4,0,.8,.2,1.12h-1.08c-.12-.28-.16-.52-.16-1.16v-1.48c0-1.08-.48-1.4-1.36-1.4h-.76v4.04h-1.04V.08h2.08Zm-.28,4.44c.84,0,1.32-.28,1.32-1.28v-.88c0-.84-.32-1.28-1.08-1.28h-1v3.48l.76-.04h0Z"/>
            <path class="cls-1" d="M65.6,2.36c0-1.44,.72-2.36,2.16-2.36s2.16,.92,2.16,2.36V7.24c0,1.44-.72,2.36-2.16,2.36s-2.16-.96-2.16-2.36V2.36Zm1.04,4.96c0,.88,.36,1.36,1.12,1.36s1.12-.48,1.12-1.36V2.32c0-.84-.36-1.36-1.12-1.36s-1.12,.52-1.12,1.36V7.32h0Z"/>
            <path class="cls-1" d="M72.52,9.52V1.04h-1.72V.08h4.52v.96h-1.72V9.52h-1.08Z"/>
            <path class="cls-1" d="M79.64,4.28v.92h-2.32v3.36h2.84v.96h-3.88V.08h3.88v.96h-2.84v3.24s2.32,0,2.32,0Z"/>
            <path class="cls-1" d="M83.72,5.44l-1.56,4.08h-1l1.92-4.88L81.32,.08h1.08l1.44,3.76,1.48-3.76h1l-1.76,4.56,1.88,4.88h-1.12l-1.6-4.08h0Z"/>
          </g>
          <g>
            <path class="cls-1" d="M45.28,11.48v2.88h-.32v-2.88h.32Z"/>
            <path class="cls-1" d="M47.84,14.36h-.28v-2.88h.4l.68,2.08v-2.08h.28v2.88h-.32l-.72-2.32-.04,2.32h0Z"/>
            <path class="cls-1" d="M51.56,14.36v-2.6h-.52v-.28h1.36v.28h-.52v2.6h-.32Z"/>
            <path class="cls-1" d="M55.56,12.76v.28h-.72v1.04h.88v.28h-1.2v-2.88h1.2v.28h-.88v1s.72,0,.72,0Z"/>
            <path class="cls-1" d="M58.56,11.48c.44,0,.64,.24,.64,.64v.28c0,.32-.12,.52-.36,.6,.28,.08,.36,.28,.36,.6v.44c0,.12,0,.24,.04,.36h-.32c-.04-.08-.04-.16-.04-.36v-.44c0-.32-.16-.44-.44-.44h-.24v1.24h-.32v-2.88l.68-.04h0Zm-.08,1.36c.24,0,.4-.08,.4-.4v-.28c0-.24-.08-.4-.32-.4h-.32v1.08h.24Z"/>
            <path class="cls-1" d="M61.72,14.36h-.28v-2.88h.4l.68,2.08v-2.08h.28v2.88h-.32l-.72-2.32-.04,2.32h0Z"/>
            <path class="cls-1" d="M65.36,13.8l-.12,.6h-.28l.56-2.88h.48l.56,2.88h-.32l-.12-.6h-.76Zm.04-.28h.64l-.32-1.64-.32,1.64h0Z"/>
            <path class="cls-1" d="M68.96,14.36v-2.6h-.52v-.28h1.36v.28h-.52v2.6h-.32Z"/>
            <path class="cls-1" d="M72.24,11.48v2.88h-.32v-2.88h.32Z"/>
            <path class="cls-1" d="M74.48,12.2c0-.44,.2-.72,.64-.72s.68,.28,.68,.72v1.48c0,.44-.2,.72-.68,.72s-.64-.28-.64-.72v-1.48Zm.32,1.48c0,.28,.12,.4,.36,.4s.36-.16,.36-.4v-1.52c0-.24-.12-.4-.36-.4s-.36,.16-.36,.4v1.52Z"/>
            <path class="cls-1" d="M78.28,14.36h-.28v-2.88h.4l.68,2.08v-2.08h.28v2.88h-.32l-.72-2.32-.04,2.32h0Z"/>
            <path class="cls-1" d="M81.92,13.8l-.12,.6h-.28l.56-2.88h.48l.56,2.88h-.32l-.12-.6h-.76Zm.04-.28h.64l-.32-1.64-.32,1.64h0Z"/>
            <path class="cls-1" d="M85.24,14.36v-2.88h.32v2.6h.84v.28h-1.16Z"/>
          </g>
        </g>
        <rect class="cls-1" x="41.08" width=".84" height="14.4"/>
      </g>
    </g>
  </g>
</svg>