<?xml version="1.0" encoding="utf-8"?>
<!-- Generator: Adobe Illustrator 26.4.1, SVG Export Plug-In . SVG Version: 6.00 Build 0)  -->
<svg version="1.1" id="Layer_2_00000114071736280668276870000004452101782292582078_"
	 xmlns="http://www.w3.org/2000/svg" xmlns:xlink="http://www.w3.org/1999/xlink" x="0px" y="0px" viewBox="0 0 252.4 38"
	 style="enable-background:new 0 0 252.4 38;" xml:space="preserve">
<style type="text/css">
	.st0{fill:none;stroke:#F4F4F4;stroke-width:2;stroke-miterlimit:10;}
	.st1{fill:#F4F4F4;}
</style>
<g id="Layer_2-2_00000044159118863805419200000000275886290267855773_">
	<g id="Layer_2-2">
		<g id="Layer_1-2">
			<g>
				<g>
					<path class="st0" d="M41.2,8L19,30.2c-1.3-1.2-2.2-2.6-2.9-4.2c-0.1-0.1-0.1-0.2-0.2-0.5l0,0c-2.6-5.8-1.5-12.8,3.3-17.6
						C25.2,1.8,35.2,1.8,41.2,8C41.2,8,41.2,8,41.2,8z"/>
					<path class="st0" d="M41.2,8c1.2,1.2,2.2,2.6,2.9,4l0,0c0.1,0.2,0.2,0.5,0.3,0.6l0,0c2.6,5.8,1.5,12.8-3.3,17.6
						C35,36.4,25.1,36.4,19,30.3L41.2,8z"/>
					<path class="st0" d="M19,8c-4.8,4.8-5.8,11.9-3.3,17.6l0,0c0.1,0.1,0.1,0.2,0.2,0.5c0.7,1.5,1.7,2.9,2.9,4.2l-4.5,4.5
						c-3,3-8,3-11.1,0c-3-3-3-8,0-11.1L19,8z"/>
					<path class="st0" d="M57,3.3c3,3,3,8,0,11.1L41.2,30.2c4.8-4.8,5.8-11.8,3.3-17.6l0,0c-0.1-0.2-0.2-0.5-0.3-0.6l0,0
						c-0.7-1.4-1.7-2.8-2.9-4L46,3.2C49,0.3,54,0.3,57,3.3C57,3.3,57,3.3,57,3.3z"/>
				</g>
				<g>
					<path class="st1" d="M72.8,24.9c-0.1-0.1-0.2-0.2-0.5-0.3c-0.2-0.1-0.5-0.1-0.8-0.1h-1.7v5.4h-4.7v-16h7.3
						c2.1,0,3.6,0.3,4.8,1.2c1,0.8,1.6,1.9,1.6,3.4c0,1.2-0.3,2.1-1.2,2.9c-0.8,0.8-1.7,1.3-3.1,1.5V23c0.9,0.2,1.6,0.6,2,0.9
						c0.5,0.5,0.8,1.2,1,2.3c0.3,1.2,0.6,1.9,0.7,2.3c0.1,0.5,0.2,0.8,0.5,1.3v0.1h-4.8c-0.1-0.1-0.1-0.3-0.2-0.6
						c-0.1-0.2-0.2-1-0.3-2.2c-0.1-0.7-0.2-1.2-0.3-1.5C73.1,25.2,73,25,72.8,24.9C72.8,24.9,72.8,24.9,72.8,24.9z M74.2,19.2
						c0-0.6-0.2-1-0.6-1.4c-0.5-0.2-1-0.5-1.9-0.5h-2.1v3.8h2.2c0.8,0,1.4-0.1,1.9-0.5C74.1,20.3,74.2,19.9,74.2,19.2L74.2,19.2z"/>
					<path class="st1" d="M80.4,29.8v-16H86l3.4,10.6l3.4-10.6h5.1v16h-4.1v-9.9l-2.9,9.9h-3.6L84.4,20v9.8
						C84.5,29.8,80.4,29.8,80.4,29.8z"/>
					<path class="st1" d="M112.2,21.6c0.3,0.3,0.7,0.8,0.8,1.3c0.2,0.6,0.2,1.2,0.2,1.7c0,1.6-0.6,3-1.9,4c-1.3,0.9-2.8,1.4-4.9,1.4
						s-3.7-0.3-4.9-1.2c-1.2-0.8-2.1-1.9-2.4-3.4l4.3-1.2c0.2,0.7,0.6,1.2,1,1.5c0.6,0.3,1.3,0.6,2.1,0.6c0.7,0,1.2-0.1,1.5-0.3
						c0.3-0.2,0.6-0.6,0.6-1c0-0.3-0.1-0.6-0.5-0.8c-0.3-0.2-1-0.3-2.2-0.6c-0.8-0.1-1.4-0.2-1.9-0.3c-0.5-0.1-0.8-0.2-1.3-0.3
						c-0.5-0.1-0.8-0.3-1.2-0.5c-0.3-0.2-0.6-0.3-0.8-0.7c-0.3-0.3-0.7-0.8-0.9-1.4c-0.2-0.5-0.2-1-0.2-1.7c0-1.6,0.6-2.9,1.9-4
						c1.2-0.9,2.8-1.5,4.8-1.5c1.7,0,3.3,0.3,4.4,1.2s2,2,2.3,3.4l-4.1,0.8c-0.2-0.7-0.5-1.2-0.9-1.5c-0.5-0.3-0.9-0.5-1.7-0.5
						c-0.6,0-1,0.1-1.4,0.3c-0.3,0.2-0.6,0.6-0.6,1c0,0.3,0.1,0.7,0.5,0.8c0.3,0.2,1,0.3,2.1,0.6c1,0.1,1.7,0.2,2.1,0.3
						c0.3,0.1,0.7,0.2,1,0.2c0.5,0.1,0.8,0.2,1.2,0.5C111.6,21.1,111.8,21.4,112.2,21.6C112.2,21.6,112.2,21.6,112.2,21.6z"/>
					<path class="st1" d="M130.9,13.8v1.6h-5.6v14.3h-2V15.4h-5.5v-1.6C117.8,13.8,130.9,13.8,130.9,13.8z"/>
					<path class="st1" d="M137.8,30.1c-1.7,0-3-0.6-4.1-1.6c-1-1-1.5-2.6-1.5-4.4s0.5-3.3,1.5-4.4c1-1.2,2.3-1.7,4-1.7
						c0.9,0,1.9,0.2,2.6,0.7s1.3,1,1.7,1.9c0.2,0.6,0.5,1.2,0.6,1.7c0.1,0.7,0.2,1.4,0.2,2.1h-8.6c0,1.3,0.5,2.3,1,3
						c0.7,0.7,1.5,1.2,2.7,1.2c0.8,0,1.6-0.2,2.1-0.6c0.6-0.5,1-1,1.4-2l1.6,0.6c-0.5,1.2-1,2.1-2,2.7
						C140.1,29.8,139.1,30.1,137.8,30.1C137.8,30.1,137.8,30.1,137.8,30.1z M140.4,21.1c-0.2-0.6-0.6-1-1.2-1.3
						c-0.5-0.3-1-0.5-1.6-0.5c-0.9,0-1.7,0.3-2.4,0.9c-0.6,0.7-0.9,1.5-1,2.7h6.6c0-0.3,0-0.7-0.1-1S140.6,21.5,140.4,21.1
						C140.4,21.1,140.4,21.1,140.4,21.1z"/>
					<path class="st1" d="M149.9,19.5c-1.2,0-2,0.3-2.7,1.2c-0.7,0.8-0.9,1.9-0.9,3.3s0.3,2.6,0.9,3.3c0.7,0.8,1.5,1.2,2.7,1.2
						c0.9,0,1.6-0.2,2.2-0.7c0.6-0.5,0.9-1.2,1.3-2.2l1.7,0.5c-0.3,1.3-0.9,2.2-1.9,2.9c-0.9,0.7-2,1-3.4,1c-1.7,0-3.1-0.6-4.1-1.6
						c-0.9-1-1.5-2.6-1.5-4.5s0.5-3.3,1.5-4.4c1-1.2,2.3-1.7,4.1-1.7c1.3,0,2.4,0.3,3.3,1.2c0.8,0.7,1.5,1.9,1.9,3.3l-1.9,0.5
						c-0.2-1-0.6-1.9-1.2-2.3C151.5,19.7,150.8,19.4,149.9,19.5L149.9,19.5L149.9,19.5z"/>
					<path class="st1" d="M157.4,29.8V13h1.9v7.7l0,0c0.5-0.9,0.9-1.6,1.7-2.1c0.7-0.5,1.5-0.7,2.4-0.7c1.3,0,2.3,0.3,3,1.2
						c0.7,0.8,1,2,1,3.5v7.2h-1.9v-6.6c0-1.3-0.2-2.2-0.7-2.8c-0.5-0.6-1.2-0.8-2.2-0.8s-2,0.5-2.6,1.3s-0.9,2-0.9,3.4V30
						L157.4,29.8C157.4,29.8,157.4,29.8,157.4,29.8z"/>
					<path class="st1" d="M170.6,29.8V18.1h1.9v2.7h0.1c0.3-0.9,0.9-1.6,1.7-2.2s1.5-0.8,2.4-0.8c1.3,0,2.3,0.3,3,1.2
						c0.7,0.8,1,2,1,3.5v7.1h-1.9v-6.5c0-1.3-0.2-2.2-0.7-2.8c-0.5-0.6-1.2-0.8-2.2-0.8s-2,0.5-2.6,1.3s-0.9,2-0.9,3.4v5.7
						L170.6,29.8C170.6,29.8,170.6,29.8,170.6,29.8z"/>
					<path class="st1" d="M188.6,30.1c-1.6,0-3-0.6-4-1.6c-0.9-1-1.5-2.6-1.5-4.4s0.5-3.4,1.5-4.4c1-1.2,2.3-1.6,4-1.6
						c1.6,0,3,0.6,4,1.6c0.9,1,1.5,2.6,1.5,4.4s-0.5,3.4-1.5,4.5C191.6,29.5,190.2,30.1,188.6,30.1z M188.6,28.5
						c1.2,0,2-0.3,2.7-1.2s0.9-1.9,0.9-3.4s-0.3-2.6-0.9-3.3c-0.6-0.8-1.5-1.2-2.6-1.2s-2,0.3-2.7,1.2c-0.6,0.8-0.9,1.9-0.9,3.3
						s0.3,2.6,0.9,3.4C186.6,28.1,187.4,28.5,188.6,28.5L188.6,28.5z"/>
					<path class="st1" d="M196.6,29.8V13h1.9v16.8H196.6z"/>
					<path class="st1" d="M206.4,30.1c-1.6,0-3-0.6-4-1.6c-0.9-1-1.5-2.6-1.5-4.4s0.5-3.4,1.5-4.4c1-1.2,2.3-1.6,4-1.6s3,0.6,4,1.6
						c0.9,1,1.5,2.6,1.5,4.4s-0.5,3.4-1.5,4.5C209.4,29.5,208,30.1,206.4,30.1z M206.4,28.5c1.2,0,2-0.3,2.7-1.2
						c0.6-0.8,0.9-1.9,0.9-3.4s-0.3-2.6-0.9-3.3c-0.6-0.8-1.5-1.2-2.6-1.2c-1,0-2,0.3-2.7,1.2c-0.6,0.8-0.9,1.9-0.9,3.3
						s0.3,2.6,0.9,3.4C204.4,28.1,205.4,28.5,206.4,28.5L206.4,28.5z"/>
					<path class="st1" d="M218.9,33.8c-1.9,0-3.3-0.2-4.3-0.7c-0.9-0.5-1.5-1.2-1.5-2.1c0-0.6,0.2-1,0.6-1.4c0.3-0.3,1-0.7,1.7-0.8
						l0,0c-0.6-0.1-0.9-0.3-1.2-0.7c-0.2-0.2-0.3-0.7-0.3-1c0-0.5,0.1-0.8,0.5-1.2c0.3-0.3,0.7-0.7,1.3-0.8l0,0
						c-0.5-0.3-0.9-0.8-1.2-1.3c-0.2-0.6-0.3-1-0.3-1.7c0-1.3,0.5-2.2,1.3-3s2-1.2,3.4-1.2c0.6,0,1.2,0.1,1.7,0.2
						c0.6,0.1,1,0.3,1.4,0.7l1.5-2.3l1.4,1.2l-2.3,1.7c0.2,0.3,0.5,0.7,0.7,1.2s0.2,0.8,0.2,1.4c0,1.3-0.3,2.2-1.2,3
						c-0.8,0.8-1.9,1-3.3,1c-0.5,0-0.9,0-1.3-0.1c-0.5-0.1-0.8-0.2-1.2-0.3c-0.2,0.1-0.5,0.2-0.6,0.5c-0.1,0.2-0.2,0.3-0.2,0.6
						s0.1,0.6,0.5,0.8c0.2,0.1,0.7,0.2,1.3,0.2h4.7c1,0,1.9,0.2,2.4,0.6c0.6,0.5,0.8,1,0.8,1.9c0,1.3-0.6,2.2-1.6,2.9
						C222.3,33.5,220.7,33.8,218.9,33.8L218.9,33.8L218.9,33.8z M223.2,30.3c0-0.5-0.1-0.7-0.3-0.9c-0.2-0.2-0.7-0.2-1.4-0.2h-4.1
						c-0.8,0-1.5,0.1-2,0.3c-0.5,0.2-0.6,0.7-0.6,1.2c0,0.6,0.3,1,1,1.3c0.7,0.3,1.6,0.5,3,0.5s2.4-0.2,3.1-0.6
						C222.8,31.5,223.2,31,223.2,30.3L223.2,30.3z M215.9,22c0,0.8,0.2,1.4,0.7,1.9s1.2,0.7,2.1,0.7s1.5-0.2,2-0.7s0.7-1.2,0.7-2
						c0-0.7-0.2-1.4-0.7-1.7c-0.5-0.5-1.2-0.7-2-0.7s-1.5,0.2-2,0.7C216.1,20.4,215.9,21.1,215.9,22C215.9,22,215.9,22,215.9,22z"/>
					<path class="st1" d="M228.6,15.2h-2.1V13h2.1V15.2z M226.6,29.8V18.1h1.9v11.8h-1.9V29.8z"/>
					<path class="st1" d="M236.6,30.1c-1.7,0-3-0.6-4.1-1.6c-1-1-1.5-2.6-1.5-4.4s0.5-3.3,1.5-4.4c1-1.2,2.3-1.7,4-1.7
						c0.9,0,1.9,0.2,2.6,0.7c0.7,0.5,1.3,1,1.7,1.9c0.2,0.6,0.5,1.2,0.6,1.7c0.1,0.7,0.2,1.4,0.2,2.1H233c0,1.3,0.5,2.3,1,3
						c0.6,0.7,1.5,1.2,2.7,1.2c0.8,0,1.6-0.2,2.1-0.6c0.6-0.5,1-1,1.4-2l1.6,0.6c-0.5,1.2-1,2.1-2,2.7
						C238.8,29.8,237.8,30.1,236.6,30.1C236.6,30.1,236.6,30.1,236.6,30.1z M239.2,21.1c-0.2-0.6-0.6-1-1.2-1.3
						c-0.5-0.3-1-0.5-1.6-0.5c-0.9,0-1.7,0.3-2.4,0.9c-0.6,0.7-0.9,1.5-1,2.7h6.6c0-0.3,0-0.7-0.1-1
						C239.4,21.6,239.4,21.5,239.2,21.1C239.2,21.1,239.2,21.1,239.2,21.1z"/>
					<path class="st1" d="M248.1,28.5c0.8,0,1.5-0.2,2-0.6c0.5-0.3,0.7-0.8,0.7-1.5c0-0.5-0.1-0.8-0.5-1s-1-0.5-2.2-0.7
						c-1.3-0.2-2.1-0.3-2.7-0.6c-0.6-0.2-1-0.5-1.3-0.7c-0.2-0.2-0.5-0.6-0.6-0.9s-0.2-0.7-0.2-1.2c0-1,0.3-2,1.2-2.6
						c0.8-0.7,1.9-1,3-1c1.3,0,2.3,0.3,3.1,0.9s1.4,1.5,1.6,2.7l-1.6,0.3c-0.1-0.8-0.5-1.4-1-1.9c-0.6-0.5-1.2-0.6-2.1-0.6
						c-0.8,0-1.4,0.2-1.9,0.5s-0.7,0.8-0.7,1.4c0,0.5,0.2,0.9,0.6,1.2c0.3,0.2,1,0.5,2.1,0.7c1.5,0.2,2.6,0.5,3,0.7
						c0.5,0.1,0.8,0.3,1,0.7c0.2,0.2,0.5,0.5,0.6,0.8s0.2,0.7,0.2,1.2c0,1-0.5,2-1.3,2.7s-2,1-3.4,1c-1.5,0-2.7-0.3-3.6-0.9
						s-1.5-1.5-1.7-2.7l1.7-0.5c0.2,0.8,0.6,1.5,1.2,1.9C246.4,28.3,247.2,28.5,248.1,28.5L248.1,28.5L248.1,28.5z"/>
				</g>
			</g>
		</g>
	</g>
</g>
</svg>
