<?xml version="1.0" encoding="UTF-8"?>
<svg id="Layer_2" data-name="Layer 2" xmlns="http://www.w3.org/2000/svg" viewBox="0 0 51.1 15.4">
  <defs>
    <style>
      .cls-1 {
        fill: #f4f4f4;
      }

      .cls-2 {
        fill: none;
        stroke: #f4f4f4;
        stroke-miterlimit: 10;
      }
    </style>
  </defs>
  <g id="Layer_2-2" data-name="Layer 2">
    <g id="Layer_2-2" data-name="Layer 2-2">
      <g id="Layer_2-2-2" data-name="Layer 2-2">
        <g id="Layer_1-2" data-name="Layer 1-2">
          <g>
            <path class="cls-2" d="M8.95,6.13l-1.57,1.57h0l-1.25-1.25c-.64-.64-1.69-.64-2.33,0l-1.25,1.25h0l-1.53-1.57c-.64-.64-.64-1.69,0-2.33L3.84,.98c.64-.64,1.69-.64,2.33,0l2.82,2.82c.6,.64,.6,1.69-.04,2.33Z"/>
            <path class="cls-2" d="M7.38,7.7l-1.25,1.25c-.64,.64-1.69,.64-2.33,0l-1.25-1.25h0l1.25-1.25c.64-.64,1.69-.64,2.33,0l1.25,1.25Z"/>
            <path class="cls-2" d="M8.95,11.6l-2.82,2.82c-.64,.64-1.69,.64-2.33,0L.98,11.6c-.64-.64-.64-1.69,0-2.33l1.57-1.57,1.25,1.25c.64,.64,1.69,.64,2.33,0l1.25-1.25,1.57,1.57c.64,.64,.64,1.69,0,2.33h0Z"/>
          </g>
          <g>
            <path class="cls-1" d="M13.37,11.2v-1.05h6.07c.6,0,.88-.24,.88-.64v-.88c0-.4-.28-.64-.88-.64h-4.14c-1.61,0-2.21-.68-2.21-1.69v-.36c0-1.01,.6-1.69,2.21-1.69h5.91v1.05h-5.91c-.6,0-.88,.24-.88,.64v.4c0,.4,.28,.64,.88,.64h4.14c1.61,0,2.21,.68,2.21,1.69v.88c0,1.01-.6,1.69-2.21,1.69l-6.07-.04h0Z"/>
            <path class="cls-1" d="M30.47,11.2l-3.62-5.63-3.66,5.63h-1.49l4.67-7h.97l4.63,7h-1.49Z"/>
            <path class="cls-1" d="M39.28,11.2l-1.65-3.1h-3.7v3.1h-1.33V4.2h5.95c1.61,0,2.21,.68,2.21,1.69v.48c0,.93-.48,1.53-1.73,1.65l1.65,3.14-1.41,.04h0Zm.16-5.31c0-.4-.28-.64-.88-.64h-4.63v1.81h4.63c.6,0,.88-.24,.88-.64v-.52h0Z"/>
            <path class="cls-1" d="M41.69,11.2v-.88l7.08-4.95h-7.08v-1.13h9.41v.88l-7.12,4.95h7.12v1.13s-9.41,0-9.41,0Z"/>
          </g>
        </g>
      </g>
    </g>
  </g>
</svg>