<?xml version="1.0" encoding="UTF-8"?>
<svg id="Layer_2" data-name="Layer 2" xmlns="http://www.w3.org/2000/svg" viewBox="0 0 16.71 14.4">
  <defs>
    <style>
      .cls-1 {
        fill: #f4f4f4;
      }
    </style>
  </defs>
  <g id="Layer_2-2" data-name="Layer 2">
    <g id="Layer_2-2" data-name="Layer 2-2">
      <g id="Layer_1-2" data-name="Layer 1-2">
        <g>
          <path class="cls-1" d="M6.88,3.85h2.24c.12,0,.16,.08,.2,.16,.4,.68,.76,1.36,1.16,2.08,.04,.08,.08,.12,.12,.2,.12-.24,.28-.44,.4-.64,1.08-1.8,2.12-3.64,3.2-5.44,.08-.16,.16-.2,.36-.2h1.92c.08,0,.16-.04,.24,.04-2,3.44-4.04,6.88-6.08,10.39-1.28-2.2-2.52-4.4-3.76-6.6h0Z"/>
          <path class="cls-1" d="M5.4,5.25H3.12c-.12,0-.16-.12-.2-.2C2.04,3.53,1.16,2.01,.28,.49,.2,.33,.12,.17,0,0H11.75c.2,0,.24,.08,.16,.24-.28,.52-.56,1.04-.84,1.56-.08,.12-.16,.2-.32,.2H3.88c-.2,0-.24,.08-.16,.24,.52,1,1.08,2,1.68,3h0Z"/>
          <path class="cls-1" d="M8.35,14.4c-.2-.36-.4-.72-.6-1.08-1.12-1.92-2.24-3.88-3.36-5.8-.04-.04-.12-.12-.08-.2s.16-.04,.24-.04h1.92c.12,0,.2,.04,.28,.16,.88,1.56,1.8,3.16,2.68,4.72,.08,.12,.08,.24,0,.36-.44,.64-.76,1.24-1.08,1.88Z"/>
        </g>
      </g>
    </g>
  </g>
</svg>