<?xml version="1.0" encoding="utf-8"?>
<!-- Generator: Adobe Illustrator 26.4.1, SVG Export Plug-In . SVG Version: 6.00 Build 0)  -->
<svg version="1.1" id="Layer_2_00000042009425464916298540000009157541581392085404_"
	 xmlns="http://www.w3.org/2000/svg" xmlns:xlink="http://www.w3.org/1999/xlink" x="0px" y="0px" viewBox="0 0 105 40.5"
	 style="enable-background:new 0 0 105 40.5;" xml:space="preserve">
<style type="text/css">
	.st0{fill:none;stroke:#F4F4F4;stroke-width:2;stroke-miterlimit:10;}
	.st1{fill:#F4F4F4;}
</style>
<g id="Layer_2-2_00000078023759544913673190000008802359307420351134_">
	<g id="Layer_2-2">
		<g id="Layer_1-2">
			<g>
				<path class="st0" d="M44.6,1.6l-21.2,36L10.9,16.4c0.1,0.2,1.3,1.9,3,3.6l0.3,0.3c1.4,1.3,3.1,2.7,4.9,3.5c0,0,0.3,0.1,0.8,0.3
					c0.1,0,0.3,0.1,0.5,0.2h0.1c0.3,0.1,0.6,0.1,0.9,0.2c0.1,0,0.2,0,0.4,0.1h0.1c0.2,0,0.3,0,0.5,0.1h1.1c1.7,0,3.6-0.3,5.1-1.7
					c0,0,1-1,1.5-3l2.2-8.5c2.2-9.6,9.6-10,11.6-10l0,0C44.2,1.6,44.4,1.6,44.6,1.6L44.6,1.6z"/>
				<path class="st0" d="M19.9,24.1c-0.5-0.1-0.8-0.3-0.8-0.3c-1.9-0.8-3.6-2.1-4.9-3.5c1.4,1.3,3.1,2.7,4.9,3.5
					C19.2,23.8,19.4,23.9,19.9,24.1z"/>
				<path class="st0" d="M21.5,24.6c-0.3,0-0.6-0.1-0.9-0.2C20.9,24.4,21.2,24.5,21.5,24.6z"/>
				<path class="st0" d="M44,1.6c-2,0-9.4,0.4-11.6,10l-2.2,8.5c-0.5,2-1.5,3-1.5,3c-1.5,1.4-3.4,1.8-5.1,1.7h-1.1
					c-0.2,0-0.4,0-0.5-0.1h-0.1c-0.1,0-0.3,0-0.4-0.1c-0.3-0.1-0.6-0.1-0.9-0.2h-0.1c-0.2,0-0.4-0.1-0.5-0.2
					c-0.5-0.2-0.8-0.3-0.8-0.3c-1.9-0.8-3.6-2.1-4.9-3.5L14,20.1c-1.8-1.8-2.9-3.4-3-3.6l0,0L2.4,1.9c0,0,7.9-1.4,11.5,4.4l6.7,11.4
					c0,0,2.6,5.3,5.7,0l7-11.9C33.3,5.7,36.1,1.2,44,1.6z"/>
				<path class="st0" d="M19.2,23.8c0,0,0.3,0.1,0.8,0.3C19.4,23.9,19.2,23.8,19.2,23.8c-1.9-0.8-3.6-2.1-4.9-3.5
					C15.6,21.7,17.3,23,19.2,23.8z"/>
				<path class="st0" d="M21.5,24.6c-0.3,0-0.6-0.1-0.9-0.2C20.9,24.4,21.2,24.5,21.5,24.6z"/>
			</g>
			<g>
				<path class="st1" d="M56.4,4h2l-2.1,13.8h-3.2L51,4h2.2l1.7,11.3L56.4,4C56.4,4,56.4,4,56.4,4z"/>
				<path class="st1" d="M64.6,9.9v1.9h-3v4h3.8v2h-6V4h5.9v2h-3.8v3.8L64.6,9.9C64.6,9.8,64.6,9.9,64.6,9.9z"/>
				<path class="st1" d="M67.2,4.8c0.5-0.6,1.3-0.9,2.4-0.9s1.9,0.3,2.4,0.9s0.8,1.5,0.8,2.6v0.4h-2V7.2c0-0.5-0.1-0.8-0.3-1
					C70.3,6,70,5.9,69.7,5.9S69.1,6,68.9,6.2c-0.2,0.2-0.3,0.6-0.3,1c0,0.6,0.1,1.1,0.5,1.5c0.3,0.4,0.8,1,1.4,1.5
					c0.5,0.5,1,0.9,1.2,1.2c0.3,0.4,0.6,0.8,0.8,1.3s0.3,1.1,0.3,1.8c0,1.1-0.3,2-0.8,2.6c-0.6,0.6-1.4,0.9-2.4,0.9
					s-1.9-0.3-2.4-0.9c-0.6-0.6-0.8-1.5-0.8-2.6v-0.9h2v1c0,0.9,0.4,1.3,1.1,1.3s1.1-0.4,1.1-1.3c0-0.6-0.1-1.1-0.5-1.5
					c-0.3-0.4-0.8-1-1.4-1.5c-0.5-0.5-1-0.9-1.2-1.2c-0.3-0.4-0.6-0.8-0.8-1.3c-0.2-0.5-0.3-1.1-0.3-1.8C66.4,6.2,66.7,5.4,67.2,4.8
					L67.2,4.8L67.2,4.8z"/>
				<path class="st1" d="M79.7,4.9c0.5,0.6,0.8,1.4,0.8,2.6v1.8c0,1.1-0.3,1.9-0.8,2.6c-0.5,0.6-1.3,0.9-2.4,0.9h-1V18h-2.2V4h3.2
					C78.3,4,79.1,4.3,79.7,4.9L79.7,4.9z M76.3,10.7h1c0.3,0,0.6-0.1,0.8-0.3c0.2-0.2,0.3-0.5,0.3-1V7.3c0-0.5-0.1-0.8-0.3-1
					S77.7,6,77.3,6h-1V10.7z"/>
				<path class="st1" d="M86.8,9.9v1.9h-3v4h3.8v2h-5.9V4h5.9v2h-3.8v3.8L86.8,9.9C86.8,9.8,86.8,9.9,86.8,9.9z"/>
				<path class="st1" d="M93.3,17.2V14c0-0.6-0.1-1.1-0.3-1.3c-0.2-0.3-0.6-0.4-1.1-0.4h-0.8v5.6h-2.2V4h3.3c1.1,0,1.9,0.2,2.5,0.8
					s0.8,1.3,0.8,2.4v1.1c0,1.4-0.5,2.4-1.4,2.8c0.5,0.2,0.9,0.6,1.1,1c0.2,0.5,0.3,1.1,0.3,1.9v3.2c0,0.3,0.1,0.5,0.2,0.7h-2.3
					C93.4,17.6,93.3,17.4,93.3,17.2L93.3,17.2z M91.1,10.3H92c0.4,0,0.8-0.1,1-0.3s0.3-0.6,0.3-1.1V7.5c0-0.5-0.1-0.9-0.3-1.1
					s-0.5-0.3-0.9-0.3h-1V10.3C91.1,10.3,91.1,10.3,91.1,10.3z"/>
				<path class="st1" d="M42.6,22.1c0.5-0.6,1.3-0.9,2.4-0.9s1.9,0.3,2.4,0.9s0.8,1.5,0.8,2.6v0.4h-2v-0.6c0-0.5-0.1-0.8-0.3-1
					s-0.5-0.3-0.8-0.3s-0.6,0.1-0.8,0.3s-0.3,0.6-0.3,1c0,0.6,0.1,1.1,0.5,1.5c0.3,0.4,0.8,1,1.4,1.5c0.5,0.5,1,0.9,1.2,1.2
					c0.3,0.4,0.6,0.8,0.8,1.3s0.3,1.1,0.3,1.8c0,1.1-0.3,2-0.8,2.6C46.8,35,46,35.3,45,35.3s-1.9-0.3-2.4-0.9s-0.8-1.5-0.8-2.6v-0.9
					h2v1c0,0.9,0.4,1.3,1.1,1.3c0.8,0,1.1-0.4,1.1-1.3c0-0.6-0.1-1.1-0.5-1.5c-0.3-0.4-0.8-1-1.4-1.5c-0.5-0.5-1-0.9-1.2-1.2
					c-0.3-0.4-0.6-0.8-0.8-1.3s-0.3-1.1-0.3-1.8C41.8,23.5,42,22.7,42.6,22.1C42.6,22.1,42.6,22.1,42.6,22.1z"/>
				<path class="st1" d="M50.1,22.1c0.6-0.6,1.4-0.9,2.5-0.9s1.9,0.3,2.5,0.9s0.9,1.5,0.9,2.6v7.2c0,1.1-0.3,1.9-0.9,2.6
					c-0.6,0.6-1.4,0.9-2.5,0.9s-1.9-0.3-2.5-0.9s-0.9-1.5-0.9-2.6v-7.2C49.3,23.6,49.5,22.7,50.1,22.1z M52.5,33.3
					c0.8,0,1.1-0.5,1.1-1.4v-7.5c0-0.9-0.4-1.4-1.1-1.4c-0.8,0-1.1,0.5-1.1,1.4v7.5C51.4,32.9,51.8,33.3,52.5,33.3z"/>
				<path class="st1" d="M59.4,21.3v11.9H63v2h-5.7V21.3C57.2,21.3,59.4,21.3,59.4,21.3z"/>
				<path class="st1" d="M66,32c0,0.9,0.4,1.3,1.1,1.3s1.1-0.4,1.1-1.3V21.3h2v10.5c0,1.1-0.3,2-0.8,2.6C68.8,35,68,35.3,67,35.3
					s-1.9-0.3-2.4-0.9c-0.6-0.6-0.8-1.5-0.8-2.6V21.3H66L66,32C66,32,66,32,66,32z"/>
				<path class="st1" d="M77.9,21.3v2h-2.3v11.8h-2.2V23.3h-2.3v-2H77.9z"/>
				<path class="st1" d="M81,21.3v13.8h-2.2V21.3H81z"/>
				<path class="st1" d="M83.3,22.1c0.6-0.6,1.4-0.9,2.5-0.9s1.9,0.3,2.5,0.9s0.9,1.5,0.9,2.6v7.2c0,1.1-0.3,1.9-0.9,2.6
					c-0.6,0.6-1.4,0.9-2.5,0.9s-1.9-0.3-2.5-0.9c-0.6-0.6-0.9-1.5-0.9-2.6v-7.2C82.4,23.6,82.7,22.7,83.3,22.1z M85.7,33.3
					c0.8,0,1.1-0.5,1.1-1.4v-7.5c0-0.9-0.4-1.4-1.1-1.4s-1.1,0.5-1.1,1.4v7.5C84.6,32.9,84.9,33.3,85.7,33.3z"/>
				<path class="st1" d="M92.4,35.1h-2V21.3h2.7l2.2,8.3v-8.3h1.9v13.8H95l-2.7-10L92.4,35.1L92.4,35.1z"/>
				<path class="st1" d="M99.4,22.1c0.5-0.6,1.3-0.9,2.4-0.9s1.9,0.3,2.4,0.9s0.8,1.5,0.8,2.6v0.4h-2v-0.6c0-0.5-0.1-0.8-0.3-1
					s-0.5-0.3-0.8-0.3s-0.6,0.1-0.8,0.3s-0.3,0.6-0.3,1c0,0.6,0.1,1.1,0.5,1.5c0.3,0.4,0.8,1,1.4,1.5c0.5,0.5,1,0.9,1.2,1.2
					c0.3,0.4,0.6,0.8,0.8,1.3s0.3,1.1,0.3,1.8c0,1.1-0.3,2-0.8,2.6c-0.6,0.6-1.4,0.9-2.4,0.9s-1.9-0.3-2.4-0.9s-0.8-1.5-0.8-2.6
					v-0.9h2v1c0,0.9,0.4,1.3,1.1,1.3c0.8,0,1.1-0.4,1.1-1.3c0-0.6-0.1-1.1-0.5-1.5c-0.3-0.4-0.8-1-1.4-1.5c-0.5-0.5-1-0.9-1.2-1.2
					c-0.3-0.4-0.6-0.8-0.8-1.3s-0.3-1.1-0.3-1.8C98.6,23.5,98.9,22.7,99.4,22.1L99.4,22.1L99.4,22.1z"/>
			</g>
		</g>
	</g>
</g>
</svg>
